<svg width="512" height="512" xmlns="http://www.w3.org/2000/svg">

 <g>
  <title>background</title>
  <rect fill="none" id="canvas_background" height="402" width="582" y="-1" x="-1"/>
 </g>
 <g>
  <title>Layer 1</title>
  <path fill="#707070" id="svg_1" d="m329.2,32l-146.3,0c-30.4,0 -54.9,23.4 -54.9,52.4l0,27.6l152,0l0,37l-152,0l0,43l152,0l0,37l-152,0l0,43l152,0l0,37l-152,0l0,41.8c0,29 24.5,52.2 54.9,52.2l30.1,0l0,77l86,0l0,-77l30.2,0c30.3,0 54.8,-23.2 54.8,-52.2l0,-41.8l-59,0l0,-37l59,0l0,-43l-59,0l0,-37l59,0l0,-43l-59,0l0,-37l59,0l0,-27.6c0,-29 -24.5,-52.4 -54.8,-52.4z"/>
 </g>
</svg>