<svg width="32" height="32" xmlns="http://www.w3.org/2000/svg">

 <g>
  <title>background</title>
  <rect fill="none" id="canvas_background" height="402" width="582" y="-1" x="-1"/>
 </g>
 <g>
  <title>Layer 1</title>
  <path id="svg_1" fill="#707070" d="m5.5,28c-1.378,0 -2.5,-1.121 -2.5,-2.5l0,-14c0,-0.276 0.224,-0.5 0.5,-0.5l2,0c0.276,0 0.5,0.224 0.5,0.5s-0.224,0.5 -0.5,0.5l-1.5,0l0,13.5c0,0.827 0.673,1.5 1.5,1.5c0.276,0 0.5,0.224 0.5,0.5s-0.224,0.5 -0.5,0.5z"/>
  <path id="svg_2" fill="#263238" d="m5.5,28c-0.276,0 -0.5,-0.224 -0.5,-0.5s0.224,-0.5 0.5,-0.5c0.827,0 1.5,-0.673 1.5,-1.5l0,-22c0,-0.276 0.224,-0.5 0.5,-0.5s0.5,0.224 0.5,0.5l0,22c0,1.379 -1.122,2.5 -2.5,2.5z"/>
  <path id="svg_3" fill="#263238" d="m5.5,30c-2.481,0 -4.5,-2.019 -4.5,-4.5l0,-13c0,-0.276 0.224,-0.5 0.5,-0.5s0.5,0.224 0.5,0.5l0,13c0,1.93 1.57,3.5 3.5,3.5c0.276,0 0.5,0.224 0.5,0.5s-0.224,0.5 -0.5,0.5z"/>
  <path id="svg_4" fill="#2e3a47" d="m26.5,30l-21,0c-0.276,0 -0.5,-0.224 -0.5,-0.5s0.224,-0.5 0.5,-0.5c1.93,0 3.5,-1.57 3.5,-3.5l0,-23c0,-0.276 0.224,-0.5 0.5,-0.5l21,0c0.276,0 0.5,0.224 0.5,0.5l0,23c0,2.481 -2.019,4.5 -4.5,4.5zm-18.174,-1l18.174,0c1.93,0 3.5,-1.57 3.5,-3.5l0,-22.5l-20,0l0,22.5c0,1.412 -0.654,2.675 -1.674,3.5z"/>
  <path id="svg_6" fill="#263238" d="m23.998,10c-0.207,0 -0.395,-0.128 -0.468,-0.324l-1.5,-4c-0.097,-0.259 0.034,-0.547 0.292,-0.644c0.258,-0.101 0.547,0.033 0.644,0.292l0.885,2.361l0.457,-2.284c0.054,-0.271 0.318,-0.449 0.588,-0.392c0.271,0.054 0.446,0.317 0.392,0.589l-0.801,4c-0.044,0.219 -0.228,0.382 -0.45,0.399c-0.012,0.002 -0.026,0.003 -0.039,0.003z"/>
  <path id="svg_7" fill="#263238" d="m20.998,10c-0.013,0 -0.027,-0.001 -0.041,-0.002c-0.223,-0.018 -0.406,-0.182 -0.45,-0.4l-0.797,-4c-0.054,-0.271 0.122,-0.534 0.393,-0.588c0.27,-0.057 0.534,0.121 0.588,0.393l0.454,2.28l0.884,-2.358c0.097,-0.259 0.385,-0.393 0.644,-0.292c0.258,0.097 0.389,0.385 0.292,0.644l-1.5,4c-0.072,0.195 -0.26,0.323 -0.467,0.323z"/>
  <path id="svg_8" fill="#263238" d="m14.5,10c-0.163,0 -0.32,-0.08 -0.415,-0.221l-2.085,-3.09l0,2.811c0,0.276 -0.224,0.5 -0.5,0.5s-0.5,-0.224 -0.5,-0.5l0,-4c0,-0.276 0.224,-0.5 0.5,-0.5l0.301,0c0.166,0 0.321,0.083 0.415,0.221l1.784,2.644l0,-2.365c0,-0.276 0.224,-0.5 0.5,-0.5s0.5,0.224 0.5,0.5l0,4c0,0.22 -0.144,0.414 -0.354,0.479c-0.048,0.014 -0.097,0.021 -0.146,0.021z"/>
  <path id="svg_9" fill="#263238" d="m18.5,10l-2,0c-0.276,0 -0.5,-0.224 -0.5,-0.5l0,-4c0,-0.276 0.224,-0.5 0.5,-0.5l2,0c0.276,0 0.5,0.224 0.5,0.5s-0.224,0.5 -0.5,0.5l-1.5,0l0,3l1.5,0c0.276,0 0.5,0.224 0.5,0.5s-0.224,0.5 -0.5,0.5z"/>
  <path id="svg_11" fill="#263238" d="m18,8l-1.5,0c-0.276,0 -0.5,-0.224 -0.5,-0.5s0.224,-0.5 0.5,-0.5l1.5,0c0.276,0 0.5,0.224 0.5,0.5s-0.224,0.5 -0.5,0.5z"/>
  <path id="svg_12" fill="#263238" d="m27.5,10c-0.827,0 -1.505,-0.469 -1.813,-1.255c-0.101,-0.257 0.026,-0.547 0.283,-0.648c0.256,-0.1 0.548,0.025 0.648,0.283c0.111,0.283 0.354,0.62 0.882,0.62c0.361,0 0.529,-0.34 0.529,-0.57c0,-0.198 -0.172,-0.313 -0.688,-0.555c-0.33,-0.154 -0.703,-0.33 -0.965,-0.629c-0.358,-0.408 -0.455,-1.001 -0.239,-1.478c0.221,-0.488 0.705,-0.768 1.328,-0.768c0.801,0 1.223,0.451 1.269,0.502c0.183,0.207 0.164,0.523 -0.042,0.706c-0.204,0.182 -0.514,0.166 -0.698,-0.033c-0.018,-0.017 -0.19,-0.175 -0.529,-0.175c-0.153,0 -0.349,0.031 -0.417,0.181c-0.055,0.121 -0.021,0.291 0.079,0.405c0.125,0.143 0.387,0.266 0.639,0.384c0.533,0.251 1.263,0.593 1.263,1.46c0,0.755 -0.584,1.57 -1.529,1.57z"/>
  <path id="svg_16" fill="#263238" d="m27.5,26l-6,0c-0.276,0 -0.5,-0.224 -0.5,-0.5s0.224,-0.5 0.5,-0.5l6,0c0.276,0 0.5,0.224 0.5,0.5s-0.224,0.5 -0.5,0.5z"/>
  <path id="svg_18" fill="#263238" d="m18.5,26l-6,0c-0.276,0 -0.5,-0.224 -0.5,-0.5s0.224,-0.5 0.5,-0.5l6,0c0.276,0 0.5,0.224 0.5,0.5s-0.224,0.5 -0.5,0.5z"/>
  <path id="svg_21" fill="#263238" d="m27.5,24l-6,0c-0.276,0 -0.5,-0.224 -0.5,-0.5s0.224,-0.5 0.5,-0.5l6,0c0.276,0 0.5,0.224 0.5,0.5s-0.224,0.5 -0.5,0.5z"/>
  <path id="svg_23" fill="#263238" d="m18.5,24l-6,0c-0.276,0 -0.5,-0.224 -0.5,-0.5s0.224,-0.5 0.5,-0.5l6,0c0.276,0 0.5,0.224 0.5,0.5s-0.224,0.5 -0.5,0.5z"/>
  <path id="svg_26" fill="#263238" d="m27.5,22l-6,0c-0.276,0 -0.5,-0.224 -0.5,-0.5s0.224,-0.5 0.5,-0.5l6,0c0.276,0 0.5,0.224 0.5,0.5s-0.224,0.5 -0.5,0.5z"/>
  <path id="svg_28" fill="#263238" d="m18.5,22l-6,0c-0.276,0 -0.5,-0.224 -0.5,-0.5s0.224,-0.5 0.5,-0.5l6,0c0.276,0 0.5,0.224 0.5,0.5s-0.224,0.5 -0.5,0.5z"/>
  <path id="svg_31" fill="#263238" d="m27.5,20l-6,0c-0.276,0 -0.5,-0.224 -0.5,-0.5s0.224,-0.5 0.5,-0.5l6,0c0.276,0 0.5,0.224 0.5,0.5s-0.224,0.5 -0.5,0.5z"/>
  <path id="svg_33" fill="#263238" d="m18.5,20l-6,0c-0.276,0 -0.5,-0.224 -0.5,-0.5s0.224,-0.5 0.5,-0.5l6,0c0.276,0 0.5,0.224 0.5,0.5s-0.224,0.5 -0.5,0.5z"/>
  <path id="svg_36" fill="#263238" d="m27.5,18l-6,0c-0.276,0 -0.5,-0.224 -0.5,-0.5s0.224,-0.5 0.5,-0.5l6,0c0.276,0 0.5,0.224 0.5,0.5s-0.224,0.5 -0.5,0.5z"/>
  <path id="svg_38" fill="#263238" d="m18.5,18l-6,0c-0.276,0 -0.5,-0.224 -0.5,-0.5s0.224,-0.5 0.5,-0.5l6,0c0.276,0 0.5,0.224 0.5,0.5s-0.224,0.5 -0.5,0.5z"/>
  <path id="svg_41" fill="#263238" d="m27.5,16l-6,0c-0.276,0 -0.5,-0.224 -0.5,-0.5s0.224,-0.5 0.5,-0.5l6,0c0.276,0 0.5,0.224 0.5,0.5s-0.224,0.5 -0.5,0.5z"/>
  <path id="svg_43" fill="#2e3a47" d="m18.5,16l-6,0c-0.276,0 -0.5,-0.224 -0.5,-0.5s0.224,-0.5 0.5,-0.5l6,0c0.276,0 0.5,0.224 0.5,0.5s-0.224,0.5 -0.5,0.5z"/>
  <path id="svg_46" fill="#263238" d="m27.5,14l-6,0c-0.276,0 -0.5,-0.224 -0.5,-0.5s0.224,-0.5 0.5,-0.5l6,0c0.276,0 0.5,0.224 0.5,0.5s-0.224,0.5 -0.5,0.5z"/>
  <path id="svg_48" fill="#2e3a47" d="m18.5,14l-6,0c-0.276,0 -0.5,-0.224 -0.5,-0.5s0.224,-0.5 0.5,-0.5l6,0c0.276,0 0.5,0.224 0.5,0.5s-0.224,0.5 -0.5,0.5z"/>
 </g>
</svg>