<svg width="30" height="30" xmlns="http://www.w3.org/2000/svg">
 <title/>

 <g>
  <title>background</title>
  <rect fill="none" id="canvas_background" height="402" width="582" y="-1" x="-1"/>
 </g>
 <g>
  <title>Layer 1</title>
  <path id="svg_1" fill="none" d="m15,2.5a12.5,12.5 0 1 0 12.5,12.5a12.51408,12.51408 0 0 0 -12.5,-12.5zm4.96777,14.13965l0,0.001l-5.64648,3.94135a2.0003,2.0003 0 0 1 -3.14453,-1.64062l0,-7.88279a2.0003,2.0003 0 0 1 3.14453,-1.64059l5.64648,3.94141a2,2 0 0 1 0,3.28027l0,-0.00003z"/>
  <path fill="#fdfdfd" id="svg_2" d="m15,0a15,15 0 1 0 15,15a15.01641,15.01641 0 0 0 -15,-15zm0,27.5a12.5,12.5 0 1 1 12.5,-12.5a12.51408,12.51408 0 0 1 -12.5,12.5z"/>
  <path fill="#fdfdfd" id="svg_3" d="m19.96777,13.35938l-5.64648,-3.94138a2.0003,2.0003 0 0 0 -3.14453,1.64062l0,7.88282a1.99947,1.99947 0 0 0 3.14453,1.64056l5.64648,-3.94141l0,-0.001a2,2 0 0 0 0,-3.28027l0,0.00006z"/>
 </g>
</svg>