<svg width="32" height="32" xmlns="http://www.w3.org/2000/svg">

 <g>
  <title>background</title>
  <rect fill="none" id="canvas_background" height="402" width="582" y="-1" x="-1"/>
 </g>
 <g>
  <title>Layer 1</title>
  <path fill="#fdfdfd" id="svg_2" d="m31.12,26.762079l-7.342,-7.342c-1.095,1.701 -2.541,3.148 -4.242,4.242l7.343,7.342c1.172,1.172 3.071,1.172 4.241,0c1.173,-1.169 1.173,-3.068 0,-4.242z"/>
  <path fill="#fdfdfd" id="svg_3" d="m24,12c0,-6.627 -5.373,-12 -12,-12s-12,5.373 -12,12s5.373,12 12,12s12,-5.373 12,-12zm-12,9c-4.964,0 -9,-4.036 -9,-9c0,-4.963 4.036,-9 9,-9c4.963,0 9,4.037 9,9c0,4.964 -4.037,9 -9,9z"/>
  <path fill="#fdfdfd" id="svg_4" d="m5,12l2,0c0,-2.757 2.242,-5 5,-5l0,-2c-3.86,0 -7,3.142 -7,7z"/>
 </g>
</svg>