<svg width="158.52" height="155.031" xmlns="http://www.w3.org/2000/svg">

 <g>
  <title>background</title>
  <rect fill="none" id="canvas_background" height="402" width="582" y="-1" x="-1"/>
 </g>
 <g>
  <title>Layer 1</title>
  <path id="svg_2" fill="#707070" d="m41.983,146.431c7.931,0 71.825,1.559 79.732,0.966c18.079,-1.357 28.888,-10.047 28.888,-48.257c0,-13.28 4.835,-54.873 -1.264,-67.322c-9.801,-20.005 -25.941,-26.742 -48.28,-26.742c-14.324,0 -31.273,-0.644 -45.063,0.034c-13.313,0.653 -23.182,1.812 -33.872,10.113c-10.015,7.775 -12.078,19.298 -13.054,31.03c-1.113,13.382 -0.456,55.52 -0.456,68.945c0.001,15.959 11.883,31.233 33.369,31.233z"/>
  <polygon id="svg_3" points="112.76,24.666 112.76,129.666 88.05,86.606 93.05,24.666   " fill="#34495e"/>
  <path id="svg_4" fill="#34495e" d="m42.76,37.015l21.71,43.05l-1,48.66c-7.56,2.231 -13.67,3.572 -17.793,4.346c-3.078,0.577 -5.917,-1.784 -5.917,-4.916l0,-23.533c0,-12.651 3,-67.607 3,-67.607z"/>
  <path id="svg_5" fill="#34495e" d="m113.922509,129.852491c-6.83,-1.12 -13.78,-1.92 -20.82,-2.37l-48.18,-102.63l18.347,0c4.456,0 8.471,2.688 10.17,6.807l40.483,98.193z"/>
  <path fill="#0f0f00" id="svg_6" d="m116.642,116.89c-0.218,-28.487 -0.993,-56.829 -0.314,-85.312c0.057,-2.398 1.349,-7.668 -1.453,-9.048c-1.183,-0.583 -3.197,-0.249 -4.428,-0.264c-4.251,-0.053 -8.499,-0.094 -12.751,-0.073c-1.161,0.006 -2.58,-0.215 -3.721,0.019c-4.153,0.849 -2.679,6.601 -2.613,9.772c0.167,8.034 0.413,16.067 0.519,24.102c0.095,7.255 0.182,14.51 0.274,21.765c-5.567,-10.676 -10.876,-21.259 -15.604,-32.371c-2.882,-6.775 -5.052,-13.934 -8.453,-20.479c-2.388,-4.597 -7.658,-3.238 -12.203,-3.158c-2.887,0.051 -5.806,-0.038 -8.67,0.336c-2.257,0.294 -4.318,0.341 -4.883,2.837c-0.784,3.464 0.248,8.701 0.254,12.305c0.013,6.837 0.395,13.67 0.333,20.508c-0.163,18.076 -0.88,36.049 -0.689,54.14c0.058,5.46 0.429,10.952 0.646,16.406c0.124,3.121 0.735,3.584 3.81,3.313c4.086,-0.361 8.149,-0.789 12.248,-0.993c3.007,-0.15 7.345,0.719 8.246,-2.89c0.944,-3.782 0.056,-8.874 -0.101,-12.823c-0.476,-12.001 -0.484,-23.935 -0.29,-35.945c3.899,8.074 7.756,16.164 11.572,24.278c2.228,4.738 4.45,9.48 6.675,14.219c1.292,2.752 2.584,5.505 3.876,8.257c0.692,1.475 1.303,3.618 2.833,4.445c2.529,1.368 7.633,0.771 10.508,1.097c3.503,0.397 7.529,1.68 11.024,1.549c2.554,-0.095 3.173,-1.42 3.38,-3.687c0.369,-4.026 -0.02,-8.261 -0.025,-12.305zm-20.373,-89.623c5.079,0.025 10.157,0.03 15.237,0.014c0.022,11.236 0.047,22.471 0.053,33.707c0.01,19.109 -1.177,38.229 -0.448,57.335c-2.082,-4.503 -4.094,-9.029 -6.047,-13.589c-1.268,-2.96 -2.6,-5.891 -3.965,-8.809c-1.536,-3.283 -3.84,-6.688 -4.904,-10.143c-0.829,-2.69 -0.319,-5.995 -0.298,-8.834c0.097,-12.902 0.194,-25.804 0.29,-38.706c0.027,-3.658 0.055,-7.316 0.082,-10.975zm-49.008,99.837c-0.008,-14.502 -0.36,-29.011 -0.228,-43.511c0.056,-6.13 0.356,-12.253 0.483,-18.381c0.207,-9.992 -0.862,-19.91 -0.94,-29.896c2.594,6.071 5.29,12.104 8.069,18.093c2.394,5.159 6.755,11.474 7.238,17.06c0.65,7.514 -0.125,15.586 -0.018,23.182c0.102,7.205 0.106,14.41 0.106,21.616c0,2.439 0.913,6.9 0,9.135c-0.064,0.157 0.117,0.786 0,0.942c-0.202,0.267 -2.661,0.298 -3.278,0.357c-3.822,0.365 -7.635,0.832 -11.432,1.403zm56.345,-0.521c-2.32,-0.224 -4.644,-0.397 -6.968,-0.563c-0.513,-0.037 -1.892,0.105 -2.371,-0.168c-1.141,-0.649 -2.209,-4.525 -2.805,-5.812c-3.465,-7.493 -6.869,-15.016 -10.29,-22.529c-3.364,-7.387 -6.833,-14.721 -10.324,-22.049c-5.378,-11.29 -10.789,-22.565 -16.183,-33.847c-2.35,-4.915 -4.7,-9.831 -7.05,-14.746c2.353,0.014 4.703,0.085 7.056,0.15c1.935,0.053 6.6,-0.733 8.192,0.226c1.413,0.852 2.595,5.719 3.352,7.365c1.427,3.103 3.027,6.109 4.498,9.188c7.587,15.885 16.373,31.278 23.281,47.446c5.163,12.083 11.65,23.744 16.2,36.053c-2.195,-0.248 -4.392,-0.482 -6.588,-0.714z"/>
  <path id="svg_7" d="m88.958,154.283c-10.767,-0.004 -21.533,0.084 -32.3,0.125c-4.06,0.015 -8.12,0.015 -12.181,0.02c-8.262,0.01 -17.242,1.022 -24.996,-2.224c-18.684,-7.823 -18.296,-30.642 -17.478,-47.739c1.167,-24.393 0.226,-48.809 0.438,-73.227c0.102,-11.598 4.97,-21.957 15.646,-27.466c10.364,-5.349 23.411,-2.632 34.562,-2.486c13.758,0.18 27.509,-0.334 41.262,-0.588c10.807,-0.2 21.632,-1.148 32.441,-0.644c11.565,0.539 21.384,5.617 27.014,16.106c4.125,7.685 3.945,17.823 4.363,26.349c0.314,6.399 0.37,12.788 0.324,19.191c-0.076,10.604 -0.103,21.208 -0.178,31.812c-0.049,6.904 -0.17,13.803 -0.408,20.703c-0.212,6.148 0.189,12.965 -1.498,18.926c-2.992,10.572 -13.088,19.389 -24.089,20.413c-7.614,0.709 -15.316,-0.009 -22.941,0.596c-6.64,0.527 -13.327,0.136 -19.981,0.133zm0,-5.79c11.634,0.157 23.233,0.67 34.868,0.281c7.015,-0.234 13.383,-0.773 19.032,-5.604c9.159,-7.833 8.34,-18.829 8.462,-29.849c0.27,-24.287 0.377,-48.49 0.09,-72.781c-0.083,-7.003 0.405,-15.177 -3.169,-21.439c-2.275,-3.986 -5.74,-7.31 -9.777,-9.483c-5.184,-2.79 -10.853,-2.67 -16.579,-2.962c-29.188,-1.487 -58.396,-0.803 -87.612,-0.014c-8.396,0.226 -15.931,1.958 -21.508,8.843c-5.802,7.162 -5.081,16.086 -5.311,24.738c-0.596,22.436 -0.51,44.914 -0.306,67.356c0.077,8.486 -1.032,18.258 1.844,26.331c1.836,5.153 5.473,9.542 10.288,12.17c5.713,3.118 12.032,2.679 18.314,2.667c17.121,-0.035 34.245,-0.486 51.364,-0.254z"/>
 </g>
</svg>