<?xml version="1.0" ?><svg id="Layer_1" style="enable-background:new 0 0 512 512;" version="1.1" viewBox="0 0 512 512" xml:space="preserve" xmlns="http://www.w3.org/2000/svg" xmlns:xlink="http://www.w3.org/1999/xlink"><style type="text/css">
	.st0{fill-rule:evenodd;clip-rule:evenodd;fill:#E44163;}
</style><path class="st0" d="M500.9,205.7c-3.3-16.1-8.2-31.9-14.6-47c-6.3-14.8-14-29.1-23.1-42.5c-8.9-13.2-19.2-25.7-30.5-37  c-11.3-11.3-23.8-21.6-37-30.5c-13.4-9-27.7-16.8-42.5-23.1c-15.1-6.4-30.9-11.3-47-14.6C289.9,7.7,272.9,6,256,6  c-16.9,0-33.9,1.7-50.4,5.1c-16.1,3.3-31.9,8.2-47,14.6c-14.8,6.3-29.1,14-42.5,23.1c-13.2,8.9-25.7,19.2-37,30.5  c-11.3,11.3-21.6,23.7-30.5,37c-9,13.4-16.8,27.6-23.1,42.5c-6.4,15.1-11.3,30.9-14.6,47C7.7,222.1,6,239.1,6,256  c0,17,1.7,33.9,5.1,50.4c3.3,16.1,8.2,31.9,14.6,47c6.3,14.8,14,29.1,23.1,42.5c8.9,13.2,19.2,25.7,30.5,37  c11.3,11.3,23.8,21.6,37,30.5c13.4,9,27.7,16.8,42.5,23.1c15.1,6.4,30.9,11.3,47,14.6c16.5,3.4,33.4,5.1,50.4,5.1  c16.9,0,33.9-1.7,50.3-5.1c16.1-3.3,31.9-8.2,47-14.6c14.8-6.3,29.1-14,42.5-23.1c13.2-8.9,25.7-19.2,37-30.5  c11.3-11.3,21.6-23.7,30.5-37c9-13.4,16.8-27.7,23.1-42.5c6.4-15.1,11.3-30.9,14.6-47c3.4-16.5,5.1-33.4,5.1-50.4  C506,239.1,504.3,222.1,500.9,205.7z M469.4,253.9c-3.1-0.7-75.3-16.2-148.7-7c-1.5-3.7-3-7.3-4.6-11c-4.4-10.4-9.2-20.8-14.2-31  c84.3-34.4,118.5-83.9,119-84.5C450.8,156.7,468.9,203.2,469.4,253.9z M397,95.8c-0.5,0.8-30.9,47.1-111.5,77.3  C249,106,208.9,52.7,205.7,48.5c16.1-3.9,33-6,50.3-6C310.1,42.5,359.4,62.6,397,95.8z M204.9,48.7  C204.9,48.7,204.8,48.7,204.9,48.7c0,0-0.3,0.1-0.7,0.2C204.4,48.8,204.6,48.8,204.9,48.7z M164.9,62.9c2.8,3.8,42.3,57.3,79.3,123  C141.7,213.2,52.7,212.1,47.1,212C60.9,145.9,105.4,91,164.9,62.9z M42.5,256c0-2.3,0.1-4.5,0.2-6.7c3.8,0.1,109.3,2.5,219.2-30.4  c6.1,12,12,24.1,17.3,36.3c-2.8,0.8-5.6,1.6-8.4,2.5C155.6,294.9,97.1,398.6,97.1,398.6s0.1,0.1,0.1,0.1  C63.2,360.8,42.5,310.8,42.5,256z M256,469.5c-51.7,0-99.1-18.4-136-48.9c2.8,2.3,4.8,3.7,4.8,3.7s40.9-89.3,167.6-133.4  c0.5-0.2,0.9-0.3,1.4-0.5c30,78.1,42.4,143.4,45.6,162.1C313.7,463.5,285.6,469.5,256,469.5z M375.3,433.1  c-2.2-12.9-13.5-75.6-41.6-152.5c68.9-11,128.6,7.9,133.1,9.3C457.3,349.4,423.2,400.7,375.3,433.1z"/></svg>