<svg width="52" height="52" xmlns="http://www.w3.org/2000/svg">

 <g>
  <title>background</title>
  <rect fill="none" id="canvas_background" height="402" width="582" y="-1" x="-1"/>
 </g>
 <g>
  <title>Layer 1</title>
  <path fill="#cc0033" id="svg_3" d="m5.27337,2.648991c7.27705,-0.00334 14.5541,-0.00667 21.83115,-0.01001c3.63852,-0.00167 7.27705,-0.00334 10.91558,-0.00501c2.36731,-0.00108 8.67145,-1.17558 10.13401,1.03844c0.46828,0.70888 0.08258,4.93091 0.09718,5.80259c0.02699,1.61183 0.05398,3.22366 0.08098,4.83549c0.05938,3.54603 0.11877,7.09206 0.17816,10.63809c0.05938,3.54602 0.11877,7.09205 0.17815,10.63808c0.04933,2.94534 1.09162,7.85519 0.17816,10.63808c-1.36989,4.17342 -7.10282,2.96295 -10.46822,2.96852c-3.92406,0.0065 -7.84812,0.013 -11.77218,0.01949c-3.27006,0.00542 -6.54011,0.01083 -9.81016,0.01625c-4.23689,0.00702 -11.70233,1.55622 -13.62644,-3.59616c-0.91232,-2.44302 0.00274,-7.08946 0.02779,-9.71688c0.03397,-3.56308 0.08762,-7.12594 0.12455,-10.68899c0.03691,-3.56216 0.06305,-7.12471 0.03767,-10.68706c-0.01384,-1.94267 -0.03942,-3.8854 -0.08532,-5.8276c-0.01525,-0.64545 0.05385,-7.15207 1.19729,-6.23914c1.12059,0.89469 2.7228,-0.68734 1.59099,-1.59099c-2.31492,-1.84825 -4.61523,-0.47345 -5.12245,2.32677c-0.63669,3.51492 0.14479,7.75257 0.16949,11.33096c0.02906,4.21019 -0.01071,8.42056 -0.05936,12.63044c-0.04491,3.8869 -0.102,7.77369 -0.1262,11.6608c-0.01818,2.92056 -0.73652,6.84995 0.34965,9.65654c1.83318,4.73676 9.77197,3.00083 13.56031,2.99456c8.17513,-0.01354 16.35026,-0.02707 24.52538,-0.04061c4.09176,-0.00678 10.70586,1.58926 11.68312,-3.81309c0.57161,-3.15994 -0.03797,-6.90061 -0.09168,-10.10769c-0.07018,-4.19077 -0.14036,-8.38152 -0.21055,-12.57228c-0.07018,-4.19076 -0.14036,-8.38152 -0.21055,-12.57228c-0.0477,-2.8487 0.72556,-7.17921 -0.25538,-9.86268c-0.44135,-1.20739 -1.0532,-1.71921 -2.29806,-2.05047c-3.79498,-1.00983 -9.02439,-0.07961 -12.95331,-0.07781c-9.92325,0.00455 -19.8465,0.0091 -29.76975,0.01365c-1.44774,0.00066 -1.4502,2.25067 0,2.25l0,0z" class="st0"/>
  <path fill="#cc0033" id="svg_5" d="m2.18915,13.475981c15.88889,0 31.77778,0 47.66667,0c1.44776,0 1.45016,-2.25 0,-2.25c-15.88889,0 -31.77778,0 -47.66667,0c-1.44777,0 -1.45017,2.25 0,2.25l0,0z" class="st0"/>
  <path fill="#cc0033" id="svg_7" d="m2.35589,39.912331c15.61134,-0.05888 31.22267,-0.04393 46.83386,0.04484c1.44808,0.00823 1.44977,-2.24176 0,-2.25c-15.61119,-0.08877 -31.22252,-0.10372 -46.83386,-0.04484c-1.44751,0.00546 -1.45038,2.25547 0,2.25l0,0z" class="st0"/>
  <path fill="#cc0033" id="svg_9" d="m12.35675,2.515921c0.11091,2.88879 0.15116,5.7776 0.12078,8.66835c-0.01522,1.44826 2.23477,1.44935 2.25,0c0.03038,-2.89076 -0.00987,-5.77957 -0.12078,-8.66835c-0.05542,-1.44324 -2.30569,-1.45043 -2.25,0l0,0z" class="st0"/>
  <path fill="#cc0033" id="svg_11" d="m25.06415,2.017641c0,3.25 0,6.5 0,9.75c0,1.44777 2.25,1.45017 2.25,0c0,-3.25 0,-6.5 0,-9.75c0,-1.44777 -2.25,-1.45016 -2.25,0l0,0z" class="st0"/>
  <path fill="#cc0033" id="svg_13" d="m36.81415,1.934311c0,3.41667 0,6.83333 0,10.25c0,1.44777 2.25,1.45016 2.25,0c0,-3.41667 0,-6.83333 0,-10.25c0,-1.44777 -2.25,-1.45017 -2.25,0l0,0z" class="st0"/>
  <path fill="#cc0033" id="svg_15" d="m36.80799,39.525291c-0.33997,3.6029 -0.47636,7.20743 -0.40963,10.82567c0.02667,1.44612 2.27676,1.45082 2.25,0c-0.06673,-3.6183 0.06966,-7.22283 0.40963,-10.82567c0.13595,-1.44082 -2.11492,-1.43151 -2.25,0l0,0z" class="st0"/>
  <path fill="#cc0033" id="svg_17" d="m24.76032,39.351291c-0.03639,3.47213 -0.07278,6.94426 -0.10918,10.41639c-0.01518,1.44826 2.23481,1.44935 2.25,0c0.0364,-3.47213 0.07279,-6.94426 0.10918,-10.41639c0.01518,-1.44827 -2.23481,-1.44936 -2.25,0l0,0z" class="st0"/>
  <path fill="#cc0033" id="svg_19" d="m12.81415,39.517641c0,3.5 0,7 0,10.5c0,1.44777 2.25,1.45017 2.25,0c0,-3.5 0,-7 0,-10.5c0,-1.44776 -2.25,-1.45016 -2.25,0l0,0z" class="st0"/>
  <path fill="#cc0033" id="svg_21" d="m21.92913,20.927831c2.41201,1.01102 5.04509,1.84354 7.33574,3.09876c3.14199,1.72174 -2.10634,3.94792 -3.56983,4.63343c-1.01806,0.47687 -2.04375,1.04953 -3.13022,1.35055c-1.64165,0.45483 -1.24505,-0.52516 -1.25027,-1.85418c-0.00207,-0.52793 0.06038,-6.8123 0.17281,-6.78177c1.39916,0.38 1.99614,-1.78995 0.59814,-2.16963c-4.07627,-1.10707 -3.03416,5.5823 -3.02592,7.68233c0.00537,1.37092 -0.60956,4.19387 0.65646,5.17911c1.32816,1.03359 3.66055,0.08593 4.95959,-0.46781c2.48547,-1.0595 8.48854,-2.90074 8.18944,-6.40825c-0.13581,-1.5927 -1.39803,-2.58538 -2.73508,-3.23875c-2.45732,-1.20083 -5.08063,-2.13626 -7.60272,-3.19342c-1.3336,-0.559 -1.91584,1.6173 -0.59814,2.16963l0,0z" class="st0"/>
 </g>
</svg>