<svg width="24" height="24" xmlns="http://www.w3.org/2000/svg">

 <g>
  <title>background</title>
  <rect fill="none" id="canvas_background" height="402" width="582" y="-1" x="-1"/>
 </g>
 <g>
  <title>Layer 1</title>
  <path id="svg_2" fill="#cc0033" d="m19,9.999976c0.552,0 1,0.4 1,1l0,1c0,4 -3.056,7.4 -7,7.9l0,2.1l6,0c0.552,0 1,0.4 1,1c0,0.5 -0.448,1 -1,1l-14,0c-0.5523,0 -1,-0.5 -1,-1c0,-0.6 0.4477,-1 1,-1l6,0l0,-2.1c-3.9444,-0.5 -7,-3.9 -7,-7.9l0,-1c0,-0.6 0.4477,-1 1,-1s1,0.4 1,1l0,1c0,3.3 2.6863,6 6,6c3.314,0 6,-2.7 6,-6l0,-1c0,-0.6 0.448,-1 1,-1z"/>
  <path id="svg_3" fill="#fc1b53" d="m12,-0.000024c2.209,0 4,1.8 4,4l0,8c0,2.2 -1.791,4 -4,4c-2.2091,0 -4,-1.8 -4,-4l0,-8c0,-2.2 1.7909,-4 4,-4z"/>
  <path id="svg_4" fill="#cc0033" d="m12,-0.000024l0,16c-2.2091,0 -4,-1.8 -4,-4l0,-8c0,-2.2 1.7909,-4 4,-4z"/>
  <path id="svg_5" fill="#990026" d="m16,4.999976l0,1l-2,0l0,-1l2,0zm0,2l0,1l-2,0l0,-1l2,0zm0,2l0,1l-2,0l0,-1l2,0z"/>
  <path id="svg_6" fill="#990026" d="m10,4.999976l0,1l-2,0l0,-1l2,0zm0,2l0,1l-2,0l0,-1l2,0zm0,2l0,1l-2,0l0,-1l2,0z"/>
 </g>
</svg>