<?xml version="1.0" ?><svg id="Layer_1" style="enable-background:new 0 0 512 512;" version="1.1" viewBox="0 0 512 512" xml:space="preserve" xmlns="http://www.w3.org/2000/svg" xmlns:xlink="http://www.w3.org/1999/xlink"><style type="text/css">
	.st0{fill:#E93F33;}
</style><path class="st0" d="M260.7,11c-134,0-201.5,96-201.5,176.1c0,48.5,18.4,91.6,57.7,107.7c6.5,2.6,12.2,0.1,14.1-7  c1.3-4.9,4.4-17.4,5.8-22.6c1.9-7.1,1.2-9.5-4.1-15.7c-11.4-13.4-18.6-30.7-18.6-55.3c0-71.2,53.3-135,138.8-135  c75.7,0,117.3,46.3,117.3,108c0,81.3-36,149.9-89.4,149.9c-29.5,0-51.6-24.4-44.5-54.3c8.5-35.7,24.9-74.3,24.9-100.1  c0-23.1-12.4-42.3-38-42.3c-30.1,0-54.4,31.2-54.4,73c0,26.6,9,44.6,9,44.6S147,368.7,141.6,391.6c-10.8,45.6-1.6,101.5-0.8,107.1  c0.5,3.4,4.8,4.2,6.7,1.6c2.8-3.6,38.7-48,50.9-92.3c3.5-12.5,19.8-77.5,19.8-77.5c9.8,18.7,38.4,35.1,68.9,35.1  c90.6,0,152.1-82.6,152.1-193.2C439.2,88.9,368.4,11,260.7,11z"/></svg>