<svg width="32" height="32" xmlns="http://www.w3.org/2000/svg">
 <title/>

 <g>
  <title>background</title>
  <rect fill="none" id="canvas_background" height="402" width="582" y="-1" x="-1"/>
 </g>
 <g>
  <title>Layer 1</title>
  <path fill="#cc0033" id="svg_1" d="m19.83,14.29a11.17,11.17 0 0 0 5.48,-9.73a1.24,1.24 0 0 0 1.19,-1.23l0,-0.59a1.24,1.24 0 0 0 -1.24,-1.24l-18.52,0a1.24,1.24 0 0 0 -1.24,1.24l0,0.59a1.23,1.23 0 0 0 1.15,1.22c0.08,4.25 2.25,8.08 5.58,9.79a1.84,1.84 0 0 1 0.94,1.66l0,0.19a1.81,1.81 0 0 1 -1,1.59a11.08,11.08 0 0 0 -5.51,9.69a1.23,1.23 0 0 0 -1.16,1.2l0,0.59a1.24,1.24 0 0 0 1.24,1.24l18.52,0a1.24,1.24 0 0 0 1.24,-1.24l0,-0.59a1.24,1.24 0 0 0 -1.19,-1.23a11.1,11.1 0 0 0 -5.47,-9.66a1.81,1.81 0 0 1 -1,-1.58l0,-0.33a1.81,1.81 0 0 1 0.99,-1.58zm-13.33,-10.96l0,-0.59a0.24,0.24 0 0 1 0.24,-0.24l18.52,0a0.24,0.24 0 0 1 0.24,0.24l0,0.59a0.24,0.24 0 0 1 -0.24,0.24l-18.52,0a0.24,0.24 0 0 1 -0.24,-0.24zm19,25.34l0,0.59a0.24,0.24 0 0 1 -0.24,0.24l-18.52,0a0.24,0.24 0 0 1 -0.24,-0.24l0,-0.59a0.24,0.24 0 0 1 0.24,-0.24l18.52,0a0.24,0.24 0 0 1 0.24,0.24zm-6.13,-10a10.09,10.09 0 0 1 5,8.77l-16.73,0a10.08,10.08 0 0 1 5,-8.78a2.81,2.81 0 0 0 1.55,-2.47l0,-0.19a2.81,2.81 0 0 0 -1.49,-2.53a10.12,10.12 0 0 1 -5,-8.88l16.62,0a10.17,10.17 0 0 1 -5,8.84a2.81,2.81 0 0 0 -1.53,2.46l0,0.31a2.81,2.81 0 0 0 1.58,2.46l0,0.01z"/>
 </g>
</svg>