<svg width="24" height="24" xmlns="http://www.w3.org/2000/svg">

 <g>
  <title>background</title>
  <rect fill="none" id="canvas_background" height="402" width="582" y="-1" x="-1"/>
 </g>
 <g>
  <title>Layer 1</title>
  <path id="svg_2" fill="#990026" d="m4,0.950166c-1.1046,0 -2,0.8954 -2,2l0,3l0,11l0,3l0,1c0,1.105 0.8954,2 2,2l2,0l12,0l2,0c1.105,0 2,-0.895 2,-2l0,-1l0,-3l0,-11l0,-3c0,-1.1046 -0.895,-2 -2,-2l-2,0l0,3l0,15l0,1l-12,0l0,-1l0,-15l0,-3l-2,0zm-0.5,2l1,0c0.2761,0 0.5,0.2238 0.5,0.5l0,1c0,0.2762 -0.2239,0.5 -0.5,0.5l-1,0c-0.2761,0 -0.5,-0.2238 -0.5,-0.5l0,-1c0,-0.2762 0.2239,-0.5 0.5,-0.5zm16,0l1,0c0.276,0 0.5,0.2238 0.5,0.5l0,1c0,0.2762 -0.224,0.5 -0.5,0.5l-1,0c-0.276,0 -0.5,-0.2238 -0.5,-0.5l0,-1c0,-0.2762 0.224,-0.5 0.5,-0.5zm-16,3l1,0c0.2761,0 0.5,0.2238 0.5,0.5l0,1c0,0.2762 -0.2239,0.5 -0.5,0.5l-1,0c-0.2761,0 -0.5,-0.2238 -0.5,-0.5l0,-1c0,-0.2762 0.2239,-0.5 0.5,-0.5zm16,0l1,0c0.276,0 0.5,0.2238 0.5,0.5l0,1c0,0.2762 -0.224,0.5 -0.5,0.5l-1,0c-0.276,0 -0.5,-0.2238 -0.5,-0.5l0,-1c0,-0.2762 0.224,-0.5 0.5,-0.5zm-16,3l1,0c0.2761,0 0.5,0.2238 0.5,0.5l0,1c0,0.276 -0.2239,0.5 -0.5,0.5l-1,0c-0.2761,0 -0.5,-0.224 -0.5,-0.5l0,-1c0,-0.2762 0.2239,-0.5 0.5,-0.5zm16,0l1,0c0.276,0 0.5,0.2238 0.5,0.5l0,1c0,0.276 -0.224,0.5 -0.5,0.5l-1,0c-0.276,0 -0.5,-0.224 -0.5,-0.5l0,-1c0,-0.2762 0.224,-0.5 0.5,-0.5zm-16,3l1,0c0.2761,0 0.5,0.224 0.5,0.5l0,1c0,0.276 -0.2239,0.5 -0.5,0.5l-1,0c-0.2761,0 -0.5,-0.224 -0.5,-0.5l0,-1c0,-0.276 0.2239,-0.5 0.5,-0.5zm16,0l1,0c0.276,0 0.5,0.224 0.5,0.5l0,1c0,0.276 -0.224,0.5 -0.5,0.5l-1,0c-0.276,0 -0.5,-0.224 -0.5,-0.5l0,-1c0,-0.276 0.224,-0.5 0.5,-0.5zm-16,3l1,0c0.2761,0 0.5,0.224 0.5,0.5l0,1c0,0.276 -0.2239,0.5 -0.5,0.5l-1,0c-0.2761,0 -0.5,-0.224 -0.5,-0.5l0,-1c0,-0.276 0.2239,-0.5 0.5,-0.5zm16,0l1,0c0.276,0 0.5,0.224 0.5,0.5l0,1c0,0.276 -0.224,0.5 -0.5,0.5l-1,0c-0.276,0 -0.5,-0.224 -0.5,-0.5l0,-1c0,-0.276 0.224,-0.5 0.5,-0.5zm-16,3l1,0c0.2761,0 0.5,0.224 0.5,0.5l0,1c0,0.276 -0.2239,0.5 -0.5,0.5l-1,0c-0.2761,0 -0.5,-0.224 -0.5,-0.5l0,-1c0,-0.276 0.2239,-0.5 0.5,-0.5zm16,0l1,0c0.276,0 0.5,0.224 0.5,0.5l0,1c0,0.276 -0.224,0.5 -0.5,0.5l-1,0c-0.276,0 -0.5,-0.224 -0.5,-0.5l0,-1c0,-0.276 0.224,-0.5 0.5,-0.5z"/>
  <rect id="svg_4" y="15.999976" x="6" width="12" height="6"/>
  <rect id="svg_5" y="0.999976" x="6" width="12" height="7"/>
  <rect id="svg_6" y="6.999976" x="6" width="12" height="10"/>
  <rect id="svg_7" y="1" x="6" width="12" height="21" fill="#cc0033"/>
  <path id="svg_8" fill="#ecf0f1" d="m10,14.935956l0.096176,-6.00003l4.903638,3.087359l-4.999814,2.91267z"/>
 </g>
</svg>