<svg width="512" height="512" xmlns="http://www.w3.org/2000/svg" clip-rule="evenodd">

 <g>
  <title>background</title>
  <rect fill="none" id="canvas_background" height="402" width="582" y="-1" x="-1"/>
 </g>
 <g>
  <title>Layer 1</title>
  <path fill="#cc0033" fill-rule="nonzero" id="path2055" d="m256,433.688c-8.284,0 -15,6.716 -15,15l0,17.617l-63.355,-49.338l63.355,-49.337l0,9.337c0,8.284 6.716,15 15,15c74.467,0 135.05,-60.583 135.05,-135.05c0,-30.345 -9.964,-59.18 -28.344,-82.771l32.9,-25.614c24.054,30.918 37.164,68.908 37.164,108.385c0,97.472 -79.299,176.771 -176.77,176.771m152.855,-315.955c-5.276,-5.791 -14.12,-6.543 -20.3,-1.732l-56.85,44.26c-3.392,2.642 -5.488,6.612 -5.756,10.903c-0.267,4.291 1.319,8.49 4.357,11.533c19.826,19.852 30.744,46.212 30.744,74.22c0,52.834 -39.204,96.683 -90.05,103.983l0,-23.962c0,-5.73 -3.265,-10.96 -8.414,-13.477c-5.147,-2.515 -11.28,-1.878 -15.802,1.642l-102.769,80.029c-3.65,2.842 -5.785,7.209 -5.785,11.835c0,4.626 2.134,8.993 5.785,11.835l102.769,80.031c2.686,2.09 5.94,3.165 9.218,3.165c2.241,0 4.494,-0.502 6.584,-1.524c5.149,-2.515 8.414,-7.746 8.414,-13.476l0,-33.848c107.036,-7.712 191.77,-97.264 191.77,-206.233c0,-51.607 -19.147,-101.037 -53.915,-139.184"/>
  <path fill="#cc0033" fill-rule="nonzero" id="path2059" d="m115.01001,363.517824c-23.164,-30.594 -35.784,-67.941 -35.784,-106.594c0,-97.47 79.299,-176.769 176.769,-176.769c8.285,0 15,-6.716 15,-15l0,-19.46l63.355,49.33l-63.355,49.337l0,-7.488c0,-8.284 -6.715,-15 -15,-15c-74.466,0 -135.049,60.583 -135.049,135.05c0,29.492 9.479,57.696 26.971,80.967l-32.907,25.627zm69.428,-22.329c0.303,-4.238 -1.204,-8.407 -4.15,-11.471c-18.922,-19.679 -29.342,-45.53 -29.342,-72.794c0,-52.834 39.204,-96.682 90.049,-103.982l0,22.112c0,5.731 3.265,10.96 8.414,13.477c5.149,2.515 11.283,1.878 15.802,-1.642l102.77,-80.03c3.65,-2.843 5.784,-7.21 5.784,-11.835c0,-4.626 -2.135,-8.993 -5.784,-11.835l-102.77,-80.02c-4.523,-3.521 -10.653,-4.156 -15.803,-1.641c-5.148,2.516 -8.413,7.746 -8.413,13.476l0,35.689c-107.036,7.712 -191.769,97.263 -191.769,206.231c0,50.707 18.564,99.493 52.274,137.372c2.952,3.319 7.068,5.029 11.212,5.029c3.231,0 6.479,-1.039 9.209,-3.165l56.771,-44.21c3.353,-2.612 5.441,-6.523 5.746,-10.761"/>
 </g>
</svg>