<svg width="91" height="91" xmlns="http://www.w3.org/2000/svg">

 <g>
  <title>background</title>
  <rect fill="none" id="canvas_background" height="402" width="582" y="-1" x="-1"/>
 </g>
 <g>
  <title>Layer 1</title>
  <path id="svg_3" fill="#707070" d="m64.292,13.277c-0.002,-0.025 -0.01,-0.047 -0.01,-0.072c0,-0.024 0.008,-0.047 0.01,-0.072l0,-6.375l-8.936,0c-1.07,0 -2.053,-0.606 -2.525,-1.567c-1.402,-2.841 -4.217,-4.605 -7.338,-4.605c-3.129,0 -5.941,1.764 -7.346,4.604c-0.473,0.961 -1.455,1.568 -2.521,1.568l-8.938,0l0,6.41c0,0.013 0.004,0.024 0.004,0.037c0,0.013 -0.004,0.024 -0.004,0.036l0,6.412l37.604,0l0,-6.376z"/>
  <path id="svg_4" fill="#707070" d="m69.923,16.021l0,6.448c0,1.554 -1.26,2.815 -2.814,2.815l-43.233,0c-1.559,0 -2.816,-1.261 -2.816,-2.815l0,-6.448l-11.463,0l0,74.682l66.164,0c3.279,0 5.943,-2.666 5.943,-5.939l0,-68.743l-11.781,0z"/>
  <path id="svg_5" fill="#fdfdfd" d="m29.911,75.561l-9.264,0c-1.555,0 -2.814,-1.26 -2.814,-2.813c0,-1.557 1.26,-2.816 2.814,-2.816l9.264,0c1.557,0 2.814,1.26 2.814,2.816c0.001,1.553 -1.257,2.813 -2.814,2.813zm15.983,0l-6.879,0c-1.553,0 -2.814,-1.26 -2.814,-2.813c0,-1.557 1.262,-2.816 2.814,-2.816l6.879,0c1.553,0 2.814,1.26 2.814,2.816c0,1.553 -1.262,2.813 -2.814,2.813zm18.152,0l-8.781,0c-1.557,0 -2.818,-1.26 -2.818,-2.813c0,-1.557 1.262,-2.816 2.818,-2.816l8.781,0c1.551,0 2.814,1.26 2.814,2.816c0,1.553 -1.263,2.813 -2.814,2.813zm6.603,-16.952l-50.002,0c-1.555,0 -2.814,-1.26 -2.814,-2.814c0,-1.557 1.26,-2.816 2.814,-2.816l50.002,0c1.557,0 2.814,1.26 2.814,2.816c0.001,1.555 -1.257,2.814 -2.814,2.814zm0,-16.943l-50.002,0c-1.555,0 -2.814,-1.26 -2.814,-2.815c0,-1.556 1.26,-2.816 2.814,-2.816l50.002,0c1.557,0 2.814,1.261 2.814,2.816c0.001,1.555 -1.257,2.815 -2.814,2.815z"/>
 </g>
</svg>