<svg width="56.693000000000005" height="56.693000000000005" xmlns="http://www.w3.org/2000/svg">

 <g>
  <title>background</title>
  <rect fill="none" id="canvas_background" height="402" width="582" y="-1" x="-1"/>
 </g>
 <g>
  <title>Layer 1</title>
  <polygon fill="#cc0033" id="svg_2" points="38.512,24.392 38.512,20.445 38.512,19.855 37.922,19.857 33.975,19.871 33.99,24.407  "/>
  <path fill="#cc0033" id="svg_3" d="m28.225,34.868c2.598,0 4.713,-2.113 4.713,-4.711c0,-1.025 -0.334,-1.975 -0.893,-2.748c-0.855,-1.186 -2.248,-1.965 -3.82,-1.965s-2.963,0.779 -3.82,1.965c-0.559,0.773 -0.891,1.723 -0.891,2.748c0,2.598 2.113,4.711 4.711,4.711z"/>
  <path fill="#cc0033" id="svg_4" d="m28.348,5.158c-13.6,0 -24.625,11.023 -24.625,24.623c0,13.6 11.025,24.625 24.625,24.625c13.598,0 24.623,-11.025 24.623,-24.625c0,-13.6 -11.026,-24.623 -24.623,-24.623zm13.263,22.251l0,10.961c0,2.852 -2.322,5.172 -5.174,5.172l-16.425,0c-2.853,0 -5.173,-2.32 -5.173,-5.172l0,-10.961l0,-5.464c0,-2.853 2.32,-5.173 5.173,-5.173l16.425,0c2.852,0 5.174,2.32 5.174,5.173l0,5.464z"/>
  <path fill="#cc0033" id="svg_5" d="m35.545,30.157c0,4.035 -3.283,7.32 -7.32,7.32s-7.318,-3.285 -7.318,-7.32c0,-0.973 0.193,-1.898 0.537,-2.748l-3.996,0l0,10.961c0,1.414 1.15,2.564 2.564,2.564l16.425,0c1.414,0 2.564,-1.15 2.564,-2.564l0,-10.961l-3.998,0c0.347,0.85 0.542,1.776 0.542,2.748z"/>
 </g>
</svg>