<svg width="499.99999999999994" height="499.99999999999994" xmlns="http://www.w3.org/2000/svg">

 <g>
  <title>background</title>
  <rect fill="none" id="canvas_background" height="402" width="582" y="-1" x="-1"/>
 </g>
 <g>
  <title>Layer 1</title>
  <path id="svg_1" fill-rule="evenodd" fill="#707070" d="m36.992,281.798c0,102.851 83.406,186.253 186.251,186.253c102.849,0 186.251,-83.402 186.251,-186.253c0,-35.16 -15.082,-79.861 -27.254,-98.847c-10.543,-16.263 -14.181,-26.712 -14.181,-41.976c0,-31.799 33.529,-63.599 68.693,-63.599l4.543,0c12.536,0 22.711,-10.177 22.711,-22.713c0,-12.536 -10.175,-22.713 -22.711,-22.713l-4.543,0c-55.881,0 -103.669,29.803 -115.024,90.853c-23.267,-17.624 -59.419,-27.254 -98.486,-27.254c-102.844,-0.001 -186.25,83.404 -186.25,186.249zm163.538,0c0,-12.536 10.177,-22.712 22.713,-22.712s22.713,10.176 22.713,22.712c0,12.54 -10.177,22.715 -22.713,22.715s-22.713,-10.175 -22.713,-22.715zm-118.112,0c0,-22.624 18.26,-40.884 40.884,-40.884c22.625,0 40.886,18.26 40.886,40.884c0,22.627 -18.26,40.887 -40.886,40.887c-22.623,0 -40.884,-18.26 -40.884,-40.887zm199.88,0c0,-22.624 18.26,-40.884 40.887,-40.884c22.624,0 40.885,18.26 40.885,40.884c0,22.627 -18.261,40.887 -40.885,40.887c-22.627,0 -40.887,-18.26 -40.887,-40.887zm-99.94,99.943c0,-22.628 18.26,-40.889 40.886,-40.889s40.885,18.261 40.885,40.889c0,22.623 -18.26,40.883 -40.885,40.883s-40.886,-18.26 -40.886,-40.883zm0,-199.883c0,-22.624 18.26,-40.883 40.886,-40.883s40.885,18.26 40.885,40.883c0,22.625 -18.26,40.886 -40.885,40.886s-40.886,-18.261 -40.886,-40.886z" clip-rule="evenodd"/>
 </g>
</svg>