<svg width="512" height="512" xmlns="http://www.w3.org/2000/svg">

 <g>
  <title>background</title>
  <rect fill="none" id="canvas_background" height="402" width="582" y="-1" x="-1"/>
 </g>
 <g>
  <title>Layer 1</title>
  <rect id="svg_2" y="223.887" x="62.125" width="408.757" height="236.791" fill="#2c3e50"/>
  <polygon id="svg_3" points="80.732,223.887 62.125,223.887 62.125,242.494   " fill="#4D4D4D"/>
  <polygon id="svg_4" points="178.26800537109375,223.27349644899368 131.14999389648438,223.27349644899368 62.125,292.60049229860306 62.125,301.90551549196243 80.73200225830078,320.81350499391556 154.86199951171875,246.68350011110306 154.86199951171875,246.68350011110306 " fill="#0f151c"/>
  <polygon id="svg_5" points="275.808,223.887 228.69,223.887 154.862,297.716 178.268,321.427 252.397,247.297     252.397,247.297   " fill="#0f151c"/>
  <polygon id="svg_6" points="373.3479919433594,223.27349644899368 326.22601318359375,223.27349644899368 252.39700317382812,297.1025064587593 275.8080139160156,320.81350499391556 349.93798828125,246.68350011110306 349.93798828125,246.68350011110306 " fill="#0f151c"/>
  <polygon id="svg_7" points="470.883,223.887 423.766,223.887 349.938,297.716 373.348,321.427 447.473,247.297     447.473,247.297   " fill="#0f151c"/>
  <polygon id="svg_8" points="80.732,223.887 62.125,223.887 62.125,242.494   " fill="#E6E6E6"/>
  <polygon id="svg_9" points="178.268,223.887 131.15,223.887 62.125,293.214 62.125,297.716 104.443,297.716 154.862,247.297     154.862,247.297   " fill="#E6E6E6"/>
  <polygon id="svg_10" points="275.808,223.887 228.69,223.887 154.862,297.716 201.979,297.716 252.397,247.297     252.397,247.297   " fill="#E6E6E6"/>
  <polygon id="svg_11" points="373.348,223.887 326.226,223.887 252.397,297.716 299.218,297.716 349.938,247.297     349.938,247.297   " fill="#E6E6E6"/>
  <polygon id="svg_12" points="470.883,223.887 423.766,223.887 349.938,297.716 396.753,297.716 447.473,247.297     447.473,247.297   " fill="#E6E6E6"/>
  <rect id="svg_13" y="102.769453" x="42.516031" width="408.911" transform="matrix(-0.9659,0.2588,-0.2588,-0.9659,522.6055,207.0784) " height="69.966" fill="#2c3e50"/>
  <polygon id="svg_14" points="77.431,219.686 59.122,224.789 54.322,206.18   " fill="#E6E6E6"/>
  <polygon id="svg_15" points="41.113,156.962 86.134,144.956 171.666,194.477 171.364,194.477 126.05,206.78 126.05,206.481     41.414,157.561   " fill="#E6E6E6"/>
  <polygon id="svg_16" points="134.753,132.052 180.071,119.747 265.903,169.266 265.603,169.266 220.285,181.571     220.285,181.27   " fill="#E6E6E6"/>
  <polygon id="svg_17" points="228.987,106.841 274.306,94.538 359.841,144.057 359.841,144.057 314.523,156.362     314.523,156.061   " fill="#E6E6E6"/>
  <polygon id="svg_18" points="323.226,81.632 368.544,69.326 454.075,118.847 454.075,118.847 408.46,131.15 408.762,130.852       " fill="#E6E6E6"/>
  <rect id="svg_19" y="352.339" x="81.029" width="196.879" height="43.816" fill="#E6E6E6"/>
  <rect id="svg_20" y="321.724" x="289.615" width="171.967" height="105.042" fill="#E6E6E6"/>
  <polygon id="svg_21" points="275.808,301.017 278.511,316.322 293.214,311.222 281.511,321.427 293.214,331.33     278.511,326.226 275.808,341.531 273.104,326.226 258.401,331.33 270.104,321.427 258.401,311.222 273.104,316.322   " fill="#DDE8EE"/>
  <polygon id="svg_22" points="303.418,430.067 304.921,438.473 313.021,435.77 306.72,441.172 313.021,446.874 304.921,443.874     303.418,452.577 301.916,443.874 293.815,446.874 300.418,441.172 293.815,435.77 301.916,438.473   " fill="#DDE8EE"/>
  <polygon id="svg_23" points="261.703,392.553 264.401,406.359 277.606,401.557 266.804,410.862 277.606,420.163     264.401,415.364 261.703,429.167 259.301,415.364 245.795,420.163 256.599,410.862 245.795,401.557 259.301,406.359   " fill="#DDE8EE"/>
  <path id="svg_24" fill="#0f151c" d="m470.883,216.385l-352.636,0l337.933,-90.335c1.8,-0.601 3.302,-1.801 4.498,-3.603c0.904,-1.801 1.201,-3.601 0.603,-5.703l-18.009,-67.524c-1.201,-3.902 -5.101,-6.303 -9.302,-5.103l-394.656,105.942c-3.9,0.899 -6.301,5.103 -5.398,9.004l18.302,67.525c0.301,1.502 1.205,3.002 2.401,3.902l0,230.188c0,4.205 3.306,7.506 7.506,7.506l408.757,0c4.201,0 7.502,-3.301 7.502,-7.506l0,-236.791c0.001,-4.201 -3.3,-7.502 -7.501,-7.502zm0,244.293l-408.758,0l0,-158.159l0,-4.803l0,-4.502l0,-50.72l0,-18.606l-3.004,0.901l-4.799,-18.609l-12.908,-48.619l-0.301,-0.598l45.021,-12.006l48.619,-12.904l45.318,-12.305l48.916,-12.906l45.318,-12.303l48.92,-12.906l45.318,-12.306l67.527,-18.006l18.004,67.527l-45.614,12.302l-48.619,12.906l-45.317,12.305l-48.921,12.904l-45.318,12.306l-48.92,12.906l-45.315,12.303l-48.619,12.906l-15.306,4.201l18.607,0l50.418,0l47.118,0l50.422,0l47.117,0l50.418,0l47.122,0l50.418,0l47.117,0l0,236.791l0.001,0z"/>
 </g>
</svg>