<svg width="512" height="512" xmlns="http://www.w3.org/2000/svg">

 <g>
  <title>background</title>
  <rect fill="none" id="canvas_background" height="402" width="582" y="-1" x="-1"/>
 </g>
 <g>
  <title>Layer 1</title>
  <path fill="#707070" id="XMLID_13100_" d="m374.389,317.557c0.565,-1.363 1.743,-2.38 3.176,-2.737l71.553,-17.889l-52.564,-35.043c-1.028,-0.685 -1.742,-1.751 -1.984,-2.963c-0.242,-1.211 0.007,-2.47 0.692,-3.498l33.352,-50.029l-48.444,16.148c-1.641,0.548 -3.448,0.141 -4.696,-1.055c-1.248,-1.196 -1.732,-2.984 -1.258,-4.646l34.507,-120.708l-67.199,84.014c-1.066,1.333 -2.779,1.977 -4.457,1.677c-1.681,-0.3 -3.063,-1.495 -3.603,-3.114l-15.383,-46.147l-16.562,66.247c-0.511,2.046 -2.333,3.494 -4.442,3.529c-2.09,0.048 -3.979,-1.351 -4.559,-3.378l-37.597,-131.519l-35.528,70.993c-0.743,1.484 -2.22,2.462 -3.877,2.564c-1.651,0.105 -3.244,-0.683 -4.166,-2.063l-32.351,-48.467l0,66.323c0,1.79 -1.025,3.423 -2.64,4.199c-1.615,0.775 -3.531,0.558 -4.929,-0.56l-85.653,-68.46l72.287,144.507c0.649,1.299 0.656,2.827 0.019,4.132s-1.848,2.237 -3.271,2.522l-91.929,18.398l73.368,55.077c1.08,0.811 1.756,2.05 1.851,3.397c0.096,1.347 -0.398,2.669 -1.353,3.624l-32.932,32.932l50.079,0c1.546,0 2.992,0.767 3.859,2.048c0.866,1.28 1.042,2.907 0.467,4.344l-32.45,81.067l106.602,-106.538c1.216,-1.215 2.999,-1.664 4.646,-1.164c1.645,0.498 2.881,1.86 3.219,3.545l16.379,81.838l15.417,-61.611c0.458,-1.828 1.971,-3.2 3.834,-3.478c0.23,-0.035 0.46,-0.051 0.688,-0.051c1.619,0 3.144,0.844 3.994,2.261l52.673,87.727l0,-105.769c0,-1.792 1.026,-3.424 2.641,-4.2c1.614,-0.775 3.53,-0.559 4.93,0.562l81.879,65.491l-47.973,-79.896c-0.762,-1.267 -0.877,-2.819 -0.312,-4.183zm-138.746,-96.149l35.886,0l0,8.972l-25.653,0l0,12.679l22.168,0l0,8.305l-22.168,0l0,13.717l26.321,0l0,8.971l-36.554,0l0,-52.644zm-50.532,83.876l-18.639,0l0,-18.64l18.639,0l0,18.64zm4.192,-31.233l-10.233,0l0,-52.643l7.934,0l27.434,34.552l0,-34.478l10.232,0l0,52.568l-8.305,0l-27.063,-33.735l0,33.736l0.001,0zm126.283,26.573l-111.835,0c-2.573,0 -4.66,-2.086 -4.66,-4.659c0,-2.574 2.087,-4.66 4.66,-4.66l111.835,0c2.573,0 4.659,2.086 4.659,4.66c0,2.573 -2.086,4.659 -4.659,4.659zm37.278,4.66l-18.64,0l0,-18.64l18.64,0l0,18.64zm-21.427,-31.233l-8.601,0l-9.12,-22.095l-9.119,22.095l-8.602,0l-21.279,-52.643l10.974,0l14.978,40.928l6.524,-16.831l-8.823,-23.948l9.417,0l5.931,17.424l5.933,-17.424l9.49,0l-8.972,23.948l6.673,16.831l14.903,-40.928l11.122,0l-21.429,52.643z"/>
 </g>
</svg>