<svg width="32" height="32" xmlns="http://www.w3.org/2000/svg">

 <g>
  <title>background</title>
  <rect fill="none" id="canvas_background" height="402" width="582" y="-1" x="-1"/>
 </g>
 <g>
  <title>Layer 1</title>
  <path fill="#707070" id="svg_2" d="m13,13c0,0 0,0 0,0c-0.3,0 -0.6,-0.2 -0.8,-0.4l-6,-8c-0.3,-0.4 -0.2,-1.1 0.2,-1.4c0.4,-0.3 1.1,-0.2 1.4,0.2l5.2,7l7.2,-9c0.3,-0.4 1,-0.5 1.4,-0.2c0.4,0.3 0.5,1 0.2,1.4l-8,10c-0.2,0.3 -0.5,0.4 -0.8,0.4z"/>
  <path fill="#707070" id="svg_4" d="m20,11l-15,0c-1.7,0 -3,1.3 -3,3l0,14c0,1.7 1.3,3 3,3l15,0l0,-20z"/>
  <path fill="#707070" id="svg_5" d="m27,11l-5,0l0,20l5,0c1.7,0 3,-1.3 3,-3l0,-14c0,-1.7 -1.3,-3 -3,-3zm-1,14c-0.6,0 -1,-0.5 -1,-1s0.5,-1 1,-1s1,0.5 1,1s-0.4,1 -1,1zm0,-3c-0.6,0 -1,-0.5 -1,-1s0.5,-1 1,-1s1,0.5 1,1s-0.4,1 -1,1zm0,-3c-1.1,0 -2,-0.9 -2,-2s0.9,-2 2,-2s2,0.9 2,2s-0.9,2 -2,2z"/>
 </g>
</svg>