<svg width="48" height="48" xmlns="http://www.w3.org/2000/svg">

 <g>
  <title>background</title>
  <rect fill="none" id="canvas_background" height="402" width="582" y="-1" x="-1"/>
 </g>
 <g>
  <title>Layer 1</title>
  <path id="svg_1" fill="none" d="m0,0l48,0l0,48l-48,0l0,-48z"/>
  <path fill="#cc0033" id="svg_2" d="m8,12l-4,0l0,28c0,2.21 1.79,4 4,4l28,0l0,-4l-28,0l0,-28zm32,-8l-24,0c-2.21,0 -4,1.79 -4,4l0,24c0,2.21 1.79,4 4,4l24,0c2.21,0 4,-1.79 4,-4l0,-24c0,-2.21 -1.79,-4 -4,-4zm-2,18l-8,0l0,8l-4,0l0,-8l-8,0l0,-4l8,0l0,-8l4,0l0,8l8,0l0,4z"/>
 </g>
</svg>