<svg width="64" height="64" xmlns="http://www.w3.org/2000/svg">

 <g>
  <title>background</title>
  <rect fill="none" id="canvas_background" height="402" width="582" y="-1" x="-1"/>
 </g>
 <g>
  <title>Layer 1</title>
  <path fill="#cc0033" id="svg_2" d="m40.001,36.254c0,3.299 -2.673,5.971 -5.97,5.971l-4.061,0c-3.297,0 -5.97,-2.672 -5.97,-5.971l-16,0l0,17c0,2.209 1.791,4 4,4l40,0c2.209,0 4,-1.791 4,-4l0,-17l-15.999,0z"/>
  <path fill="#cc0033" id="svg_3" d="m31.916,6.746l-7.608,7.452c-0.747,0.733 -0.506,1.327 0.543,1.327l4.565,0l0,15.221c0,1.381 1.119,2.5 2.5,2.5s2.5,-1.119 2.5,-2.5l0,-15.221l4.565,0c1.05,0 1.291,-0.595 0.542,-1.327l-7.607,-7.452z"/>
 </g>
</svg>